<?xml version="1.0" encoding="UTF-8"?>
<svg version="1.1" xmlns="http://www.w3.org/2000/svg" width="1024" height="1024">
<path d="M0 0 C337.92 0 675.84 0 1024 0 C1024 337.92 1024 675.84 1024 1024 C686.08 1024 348.16 1024 0 1024 C0 686.08 0 348.16 0 0 Z " fill="#171D24" transform="translate(0,0)"/>
<path d="M0 0 C1.17216515 -0.00438225 2.3443303 -0.00876451 3.5520156 -0.01327956 C6.78845698 -0.02428768 10.02487118 -0.03087428 13.26132691 -0.03546071 C16.75924459 -0.04144837 20.25714482 -0.05305028 23.75505066 -0.06375122 C32.19534072 -0.08820544 40.63563653 -0.10289328 49.07595107 -0.11581129 C51.46387811 -0.1195287 53.85180459 -0.12350148 56.23973107 -0.12756395 C71.09964018 -0.15280893 85.95955033 -0.17484067 100.81947613 -0.1872921 C104.25691417 -0.19022132 107.69435219 -0.19318305 111.13179016 -0.19619751 C111.9860453 -0.19694356 112.84030044 -0.19768961 113.72044209 -0.19845827 C127.53447667 -0.21109062 141.34838192 -0.24428915 155.16235616 -0.28599934 C169.37713763 -0.32856427 183.59185316 -0.35200395 197.80669814 -0.35721266 C205.77464952 -0.36061061 213.74239889 -0.37217306 221.71028709 -0.4053154 C228.50137596 -0.43351818 235.29222137 -0.44422774 242.08336421 -0.43311994 C245.53929586 -0.4279841 248.99471935 -0.43048154 252.45057487 -0.45558548 C271.79517162 -0.5734737 292.73503965 -0.42765979 309.2077179 11.15390015 C310.27248352 11.89768921 311.33724915 12.64147827 312.4342804 13.4078064 C329.01105533 25.39504497 341.00607647 41.88965342 345.2077179 62.15390015 C345.29848604 63.85439679 345.33677698 65.55804577 345.33914566 67.26096153 C345.34298681 68.29834382 345.34682795 69.33572612 345.35078549 70.40454423 C345.34991901 71.54284578 345.34905253 72.68114733 345.34815979 73.85394287 C345.35261647 75.66960044 345.35261647 75.66960044 345.35716319 77.52193797 C345.36434399 80.88355665 345.36702256 84.24512423 345.36776066 87.60674691 C345.369612 91.23206927 345.37715998 94.85738057 345.38389587 98.48269653 C345.39747936 106.41289731 345.40350459 114.34309303 345.40790653 122.27330351 C345.41067023 127.22837271 345.41490795 132.18343996 345.41941071 137.13850784 C345.43160586 150.86573095 345.44190308 164.59295249 345.4452858 178.32018089 C345.44550536 179.19886669 345.44572493 180.07755249 345.44595115 180.98286513 C345.44616943 181.8636308 345.4463877 182.74439647 345.4466126 183.65185201 C345.44705606 185.43655165 345.44750262 187.22125129 345.44795227 189.00595093 C345.4481737 189.89121978 345.44839513 190.77648863 345.44862327 191.68858381 C345.45256653 206.01518431 345.47000502 220.3417338 345.49331179 234.66831462 C345.51706407 249.38805241 345.52948949 264.10776466 345.53065372 278.82752192 C345.53156856 287.08756132 345.53727235 295.34753434 345.55547333 303.60755539 C345.57092705 310.64557178 345.57596403 317.68350129 345.56773522 324.72153144 C345.56384661 328.30808103 345.56466975 331.89445598 345.57879257 335.48098373 C345.59401238 339.38207003 345.58561163 343.28291482 345.57521057 347.184021 C345.58729518 348.8580125 345.58729518 348.8580125 345.59962392 350.56582201 C345.48076332 369.74737821 339.24955048 385.4628644 327.2077179 400.15390015 C326.5477179 401.01241577 325.8877179 401.8709314 325.2077179 402.75546265 C314.20016246 415.95592952 295.09260237 424.9875692 278.2077179 427.15390015 C274.28049364 427.3049738 270.35551765 427.30172023 266.42575073 427.30107117 C265.23064328 427.30474786 264.03553582 427.30842454 262.80421299 427.31221265 C259.49465172 427.32131197 256.18513993 427.32594312 252.87557089 427.32860196 C249.30275116 427.33251669 245.72994563 427.34209423 242.15713501 427.35081482 C233.53212788 427.3705471 224.90711963 427.38064169 216.28209558 427.38954261 C212.21507037 427.39393113 208.14804645 427.39929651 204.08102226 427.40453148 C190.55188168 427.42154112 177.02274189 427.43603348 163.49359226 427.44328022 C159.98529624 427.44518995 156.47700022 427.4471103 152.96870422 427.44906616 C151.66083461 427.44979177 151.66083461 427.44979177 150.32654338 427.45053204 C136.21412387 427.45882562 122.10178929 427.48415236 107.98940683 427.51664684 C93.48317357 427.5497744 78.97698339 427.56773415 64.47071213 427.57092446 C56.3330473 427.57308437 48.19550632 427.58175667 40.05787849 427.60738564 C33.12495805 427.62917069 26.19219155 427.63710494 19.25924075 427.62741885 C15.72718062 427.62289649 12.19543757 427.62463841 8.66342163 427.6441803 C-23.54290503 427.79326488 -23.54290503 427.79326488 -38.6047821 419.34140015 C-39.52142639 418.8297229 -39.52142639 418.8297229 -40.45658875 418.30770874 C-45.75724274 415.29646394 -51.18595201 412.16411693 -55.7922821 408.15390015 C-55.7922821 407.49390015 -55.7922821 406.83390015 -55.7922821 406.15390015 C-56.7822821 405.82390015 -57.7722821 405.49390015 -58.7922821 405.15390015 C-70.75317217 394.37395872 -79.66420667 376.25254622 -81.04453802 360.22483099 C-81.21111296 356.76677266 -81.3208252 353.31171839 -81.4072113 349.85072327 C-81.46355401 347.93121354 -81.46355401 347.93121354 -81.52103496 345.97292584 C-81.87580068 332.98391415 -81.94778749 319.99779857 -81.95341492 307.00473022 C-81.9580622 304.43855725 -81.96308929 301.87238494 -81.96846008 299.30621338 C-81.98138494 292.43710619 -81.98802617 285.56801006 -81.99247074 278.69889283 C-81.9952664 274.39242259 -81.99950833 270.08595449 -82.00397491 265.7794857 C-82.01612178 253.79695307 -82.02643936 241.81442208 -82.02985001 229.83188343 C-82.03006957 229.07144829 -82.03028914 228.31101315 -82.03051536 227.52753453 C-82.03073364 226.76561638 -82.03095191 226.00369823 -82.03117681 225.21869165 C-82.03162023 223.67552872 -82.03206679 222.1323658 -82.03251648 220.58920288 C-82.03273791 219.82379233 -82.03295934 219.05838177 -82.03318748 218.26977696 C-82.03714659 205.83245723 -82.05465502 193.39519564 -82.077876 180.95789842 C-82.10166042 168.11317017 -82.11405457 155.26847113 -82.11521792 142.42372054 C-82.11612913 135.2415065 -82.12174284 128.05936901 -82.14003754 120.87717628 C-82.15716257 114.13237239 -82.15863889 107.387738 -82.14989853 100.64291 C-82.14913257 98.18161695 -82.15341202 95.72031583 -82.16335678 93.25904274 C-82.30005302 57.29743821 -82.30005302 57.29743821 -75.1047821 44.71640015 C-74.75737976 44.06864624 -74.40997742 43.42089233 -74.05204773 42.75350952 C-63.7900798 24.09706693 -48.36092049 9.88961474 -27.94462585 3.22421265 C-18.60039233 0.52505303 -9.67262156 0.00442985 0 0 Z " fill="#21343F" transform="translate(379.7922821044922,180.84609985351563)"/>
<path d="M0 0 C1.16303546 -0.00382555 2.32607091 -0.00765109 3.52434987 -0.01159257 C6.73034481 -0.02008763 9.93619215 -0.01970352 13.14219081 -0.01541197 C16.6085643 -0.01293565 20.07491135 -0.02197016 23.54127502 -0.02944946 C30.32396024 -0.04217375 37.10660583 -0.04399296 43.88930098 -0.0416492 C49.40529232 -0.0398632 54.92127167 -0.04162171 60.43726158 -0.04587364 C61.22355545 -0.04646883 62.00984932 -0.04706402 62.81997028 -0.04767724 C64.4175527 -0.04888905 66.01513511 -0.05010319 67.61271753 -0.05131962 C82.5823225 -0.06218658 97.55190493 -0.06003677 112.52151116 -0.05393478 C126.1992639 -0.04876734 139.87694538 -0.06001798 153.55468402 -0.07903299 C167.61690794 -0.09843183 181.67909819 -0.10666375 195.74133557 -0.10290974 C203.62899603 -0.10100068 211.51659587 -0.10345641 219.40424538 -0.11762428 C226.11977891 -0.12956522 232.83521451 -0.13091273 239.55074946 -0.11883412 C242.97303761 -0.11296416 246.39514686 -0.11179332 249.81742287 -0.12383652 C253.5373004 -0.13432437 257.25670175 -0.12618621 260.9765625 -0.11352539 C262.04438959 -0.12089968 263.11221668 -0.12827396 264.21240216 -0.13587171 C274.09860601 -0.0654092 283.2522445 2.00031558 292.17875671 6.26069641 C292.17875671 6.92069641 292.17875671 7.58069641 292.17875671 8.26069641 C292.77301453 8.3883136 293.36727234 8.51593079 293.97953796 8.64741516 C302.52680494 11.03093366 307.6059319 19.24274013 312.17875671 26.26069641 C317.87742865 36.6645672 319.4823304 45.91011222 319.37406921 57.63569641 C319.36982437 59.38330261 319.36982437 59.38330261 319.36549377 61.16621399 C319.35435479 64.86448203 319.3292615 68.56250233 319.30375671 72.26069641 C319.29371881 74.77761998 319.28459438 77.29454737 319.27641296 79.81147766 C319.25443601 85.96130088 319.22102115 92.11098094 319.17875671 98.26069641 C314.45112906 99.32534091 309.72817342 100.37868971 304.96391296 101.26850891 C253.08828198 111.27919699 207.69076233 134.44610125 168.17875671 169.26069641 C167.24160828 170.08569641 166.30445984 170.91069641 165.33891296 171.76069641 C158.99447399 177.46982119 152.91333807 183.42693889 146.86625671 189.44819641 C145.73667542 190.57076843 145.73667542 190.57076843 144.58427429 191.71601868 C139.91309217 196.40064008 135.46673083 201.22290328 131.17875671 206.26069641 C125.77572794 201.80618374 120.98634526 197.02887822 116.24125671 191.88569641 C109.28498182 184.38290525 102.31180002 176.94457104 94.53422546 170.28022766 C92.75197404 168.75216135 90.98662237 167.20435485 89.22953796 165.64741516 C73.74500003 152.00143513 57.13458349 140.41539606 39.17875671 130.26069641 C38.40596375 129.81742004 37.63317078 129.37414368 36.83695984 128.91743469 C23.8300682 121.51057903 10.31978445 116.11362898 -3.82124329 111.26069641 C-4.63045227 110.97742493 -5.43966125 110.69415344 -6.27339172 110.40229797 C-23.29943389 104.52849494 -41.16535195 101.59834467 -58.82124329 98.26069641 C-58.92347496 90.95084207 -58.99305473 83.64117513 -59.04096985 76.33076477 C-59.06096519 73.84892385 -59.08817054 71.36712932 -59.1230011 68.88545227 C-59.17205292 65.29817694 -59.19433386 61.71152963 -59.21186829 58.12397766 C-59.23251343 57.03176407 -59.25315857 55.93955048 -59.27442932 54.8142395 C-59.27867797 39.90622063 -53.77014103 26.22724385 -43.50874329 15.38569641 C-31.11594315 3.75163914 -16.58837622 -0.05834502 0 0 Z " fill="#171D24" transform="translate(381.8212432861328,205.7393035888672)"/>
<path d="M0 0 C46.8263794 0 97.23036949 25.00019217 133 54 C133.92941406 54.73734375 134.85882813 55.4746875 135.81640625 56.234375 C141.84849866 61.07377773 147.56715019 66.1906205 153.23046875 71.44921875 C155.45227318 73.4955351 157.70033738 75.48064423 160 77.4375 C167.63709868 84.07013685 174.89606951 91.35667506 181.3046875 99.18359375 C183.67176681 101.71975015 186.30706564 103.81339731 189 106 C189.87398437 105.05382812 190.74796875 104.10765625 191.6484375 103.1328125 C218.11772717 74.60861245 218.11772717 74.60861245 230.46484375 64.98046875 C233.20212363 62.84210064 235.80888427 60.58283431 238.4375 58.3125 C271.71109461 30.6559684 311.02529729 12.72199252 353 3 C353.76650879 2.82210938 354.53301758 2.64421875 355.32275391 2.4609375 C362.39378051 0.85381353 368.64613946 0 376 0 C376 12.54 376 25.08 376 38 C371.05 38.99 366.1 39.98 361 41 C357.52330573 41.97246666 354.15478701 42.96100533 350.75 44.125 C349.42585083 44.57504395 349.42585083 44.57504395 348.07495117 45.03417969 C303.11260714 60.78283969 267.12084928 93.00229964 246.1237793 135.66015625 C236.27487297 156.39817193 229.97765967 179.11981256 229.76171875 202.14453125 C229.74961113 203.41933601 229.74961113 203.41933601 229.73725891 204.71989441 C229.72351557 206.51238021 229.71275048 208.30489111 229.70483398 210.09741211 C229.69340321 211.88785765 229.67309567 213.67827158 229.64331055 215.46850586 C229.32625491 234.6140608 232.86298719 251.92294865 239 270 C239.66666667 272 240.33333333 274 241 276 C224.06282345 280.94439316 206.66889011 282.51469998 189.08789062 282.39111328 C186.36798335 282.37495832 183.64955197 282.39112598 180.9296875 282.41015625 C165.75106181 282.42782755 150.38245821 281.21317894 136 276 C136.32613281 275.06800781 136.65226563 274.13601563 136.98828125 273.17578125 C143.5665388 254.1111796 146.4161764 235.30100577 146.3125 215.1875 C146.31067719 214.44609772 146.30885437 213.70469543 146.30697632 212.94082642 C146.25928027 201.376165 145.54575247 190.30077742 143 179 C142.82307617 178.15727539 142.64615234 177.31455078 142.46386719 176.44628906 C139.96202007 164.55063255 136.78014494 153.18242289 132 142 C131.71286133 141.32018066 131.42572266 140.64036133 131.12988281 139.93994141 C124.58734203 124.67283407 115.89046664 110.56759851 105 98 C104.29359375 97.18402344 103.5871875 96.36804688 102.859375 95.52734375 C100.60909846 92.98201347 98.3194765 90.48238288 96 88 C94.84371094 86.7625 94.84371094 86.7625 93.6640625 85.5 C69.39343243 60.36536692 34.35529714 42.72588286 0 37 C0 24.79 0 12.58 0 0 Z " fill="#EA982A" transform="translate(324,305)"/>
<path d="M0 0 C0.66 0 1.32 0 2 0 C2.04695792 14.32663862 2.08197095 28.65326512 2.10362434 42.97996521 C2.11402157 49.63380998 2.12810591 56.28758882 2.15087891 62.94140625 C2.17275292 69.37346909 2.1845991 75.80548216 2.18975449 82.23757935 C2.19342427 84.68051943 2.20058972 87.12345707 2.21146011 89.56637573 C2.2668511 102.54107604 2.14428133 115.17910613 0 128 C-0.1823822 129.09480682 -0.3647644 130.18961365 -0.55267334 131.31759644 C-2.94366678 145.10353542 -6.54063494 158.12333005 -12 171 C-12.29745117 171.71172363 -12.59490234 172.42344727 -12.90136719 173.15673828 C-27.41640577 207.35730757 -53.08507987 237.0099951 -85 256 C-85.85537354 256.51578613 -85.85537354 256.51578613 -86.72802734 257.04199219 C-101.58136453 265.94378062 -117.16978706 272.82676612 -134 277 C-137.47514924 270.41939824 -139.80247587 263.73243853 -141.6875 256.5625 C-141.88947998 255.80090576 -142.09145996 255.03931152 -142.29956055 254.25463867 C-142.91129588 251.8445795 -143.46665325 249.42859043 -144 247 C-144.19126465 246.15727539 -144.3825293 245.31455078 -144.57958984 244.44628906 C-146.3632428 235.45033628 -146.30355591 226.47917542 -146.26074219 217.34667969 C-146.25004792 214.63714071 -146.26067527 211.92826857 -146.2734375 209.21875 C-146.30647642 171.94039944 -133.96132042 135.46765834 -111 106 C-110.33097656 105.10925781 -109.66195312 104.21851563 -108.97265625 103.30078125 C-83.72804142 70.88495146 -46.24224403 47.57159798 -6 39 C-3.69 39 -1.38 39 1 39 C0.67 26.13 0.34 13.26 0 0 Z " fill="#5A8760" transform="translate(699,304)"/>
<path d="M0 0 C1.32 0.33 2.64 0.66 4 1 C3.01 1 2.02 1 1 1 C1 13.21 1 25.42 1 38 C4.3 38.33 7.6 38.66 11 39 C14.0912593 39.79344985 17.04512247 40.62381286 20.0625 41.625 C20.87904053 41.89151367 21.69558105 42.15802734 22.53686523 42.43261719 C49.18395796 51.30381945 73.45567733 64.85975288 93.58154297 84.61669922 C94.88935987 85.89210207 96.22668245 87.13706182 97.56640625 88.37890625 C127.57719778 116.84821251 146.65862326 161.30134611 148.1262207 202.54736328 C148.20733052 206.7614689 148.24660354 210.97271863 148.25 215.1875 C148.25067474 215.94022186 148.25134949 216.69294373 148.25204468 217.46847534 C148.22477637 236.68192723 147.97673702 260.37534887 137 277 C122.42258158 273.34077048 109.21539353 268.04269658 96 261 C95.38592285 260.67628418 94.7718457 260.35256836 94.13916016 260.01904297 C85.03668583 255.18127831 76.94404516 249.52011254 69 243 C68.4328125 242.54109375 67.865625 242.0821875 67.28125 241.609375 C42.49665676 221.471893 23.61899426 195.78554755 12 166 C11.60022949 164.98389648 11.60022949 164.98389648 11.19238281 163.94726562 C1.25981177 138.33105708 -0.31737623 112.89298707 -0.1953125 85.64453125 C-0.19157275 83.16062027 -0.18873034 80.67670779 -0.18673706 78.1927948 C-0.1791763 71.72062966 -0.15959457 65.24855725 -0.1373291 58.77642822 C-0.11670596 52.14588509 -0.10770047 45.51533248 -0.09765625 38.88476562 C-0.07634004 25.923138 -0.0426936 12.96157398 0 0 Z " fill="#598760" transform="translate(323,304)"/>
<path d="M0 0 C1.24457726 -0.00786278 1.24457726 -0.00786278 2.51429749 -0.0158844 C4.26855348 -0.02230571 6.02285253 -0.02096615 7.77709961 -0.01245117 C10.45960325 -0.00394763 13.1399728 -0.03268816 15.82226562 -0.06445312 C17.52734311 -0.06606542 19.23242437 -0.06548706 20.9375 -0.0625 C21.73864731 -0.07373398 22.53979462 -0.08496796 23.36521912 -0.09654236 C26.77289142 -0.05396502 29.05281143 0.10445557 31.90332031 2.04956055 C33.89600014 4.96076918 35.04706025 7.7507981 36.2421875 11.07421875 C36.48383636 11.73546249 36.72548523 12.39670624 36.97445679 13.07798767 C37.49882929 14.51695347 38.01808683 15.95779121 38.5328064 17.40023804 C39.36720731 19.73837933 40.21465837 22.07142238 41.06567383 24.40356445 C41.9692924 26.88062688 42.87196323 29.35799892 43.77061462 31.83686829 C46.72054146 39.97369324 49.75464595 48.07788616 52.80340576 56.17810059 C54.05084858 59.49329521 55.29523326 62.80963461 56.53970337 66.12594604 C57.51707058 68.73039225 58.49483957 71.33468736 59.47265625 73.93896484 C61.67197188 79.79732706 63.86930317 85.6564327 66.06640625 91.515625 C66.45001816 92.53844574 66.83363007 93.56126648 67.22886658 94.61508179 C69.15873694 99.761049 71.08746185 104.90744035 73.01391602 110.0546875 C76.4320793 119.18423855 79.86175082 128.30864783 83.34375 137.4140625 C84.18704043 139.62821008 85.02966509 141.84260958 85.87197876 144.05712891 C86.63681177 146.05996262 87.41038921 148.0592645 88.18432617 150.05859375 C88.63267822 151.23808594 89.08103027 152.41757812 89.54296875 153.6328125 C89.9311377 154.64174561 90.31930664 155.65067871 90.71923828 156.69018555 C91.54691574 159.47313337 91.85296787 161.5518322 91.53515625 164.43359375 C88.14850409 167.82024591 83.41361076 166.73693571 78.84179688 166.75585938 C78.14546143 166.75368408 77.44912598 166.75150879 76.73168945 166.74926758 C74.60901419 166.74611064 72.48773689 166.76955136 70.36523438 166.79492188 C69.01692884 166.79719521 67.66861956 166.79789821 66.3203125 166.796875 C65.0919165 166.79985596 63.86352051 166.80283691 62.59790039 166.8059082 C59.53515625 166.43359375 59.53515625 166.43359375 56.53515625 163.43359375 C52.57515625 152.87359375 48.61515625 142.31359375 44.53515625 131.43359375 C10.38015625 130.93859375 10.38015625 130.93859375 -24.46484375 130.43359375 C-25.45484375 133.73359375 -26.44484375 137.03359375 -27.46484375 140.43359375 C-28.90549491 144.63066393 -30.46707078 148.77965332 -32.02734375 152.93359375 C-32.42630859 154.01640625 -32.82527344 155.09921875 -33.23632812 156.21484375 C-33.62240234 157.24609375 -34.00847656 158.27734375 -34.40625 159.33984375 C-34.75373291 160.27119141 -35.10121582 161.20253906 -35.45922852 162.16210938 C-36.46484375 164.43359375 -36.46484375 164.43359375 -38.46484375 166.43359375 C-41.4140625 166.69238281 -41.4140625 166.69238281 -45.15234375 166.69921875 C-45.81065186 166.7011322 -46.46895996 166.70304565 -47.1472168 166.70501709 C-48.53922915 166.70637825 -49.93125422 166.70268658 -51.32324219 166.69433594 C-53.45666964 166.68363475 -55.58925506 166.69423281 -57.72265625 166.70703125 C-59.07422061 166.70570964 -60.42578445 166.70314722 -61.77734375 166.69921875 C-63.01097656 166.69696289 -64.24460937 166.69470703 -65.515625 166.69238281 C-68.46484375 166.43359375 -68.46484375 166.43359375 -70.46484375 164.43359375 C-70.14051082 158.97387634 -68.9743388 154.50512467 -66.96728516 149.39257812 C-66.58838953 148.41505585 -66.58838953 148.41505585 -66.20183945 147.41778564 C-65.65741209 146.01627752 -65.10886693 144.61636318 -64.55656052 143.21794128 C-63.6708969 140.97541344 -62.79605362 138.72892456 -61.92398071 136.4810791 C-61.01287166 134.13290078 -60.10114631 131.78498512 -59.18615532 129.43831635 C-56.12059638 121.57451355 -53.14233383 113.67890897 -50.17578125 105.77734375 C-49.65546403 104.39390459 -49.13502171 103.01051249 -48.61445618 101.62716675 C-47.5608673 98.82725485 -46.50770601 96.02718275 -45.4548645 93.22698975 C-43.7916385 88.80432473 -42.12546344 84.38277384 -40.45874023 79.96142578 C-40.17697906 79.21394388 -39.89521788 78.46646198 -39.60491848 77.69632912 C-39.03585902 76.18667983 -38.46679616 74.67703182 -37.89772987 73.1673851 C-34.17586656 63.29367161 -30.45657939 53.41904576 -26.75554657 43.53750229 C-24.7610086 38.21292664 -22.75895474 32.89120521 -20.75396729 27.57055664 C-19.9414082 25.40971632 -19.13175776 23.24777983 -18.32513428 21.0847168 C-17.2241375 18.13306656 -16.11333351 15.18529582 -15 12.23828125 C-14.68246262 11.37923187 -14.36492523 10.5201825 -14.0377655 9.63510132 C-13.74050064 8.85430206 -13.44323578 8.07350281 -13.13696289 7.26904297 C-12.88451309 6.59557831 -12.63206329 5.92211365 -12.3719635 5.22824097 C-9.57219634 -0.31082303 -5.70573286 -0.02085478 0 0 Z " fill="#F2E9D7" transform="translate(553.46484375,658.56640625)"/>
<path d="M0 0 C0.66709488 -0.00671722 1.33418976 -0.01343445 2.02149963 -0.02035522 C4.2388548 -0.03942528 6.4559076 -0.04326661 8.67333984 -0.04541016 C10.22399009 -0.05184169 11.77463913 -0.05857031 13.32528687 -0.06558228 C16.58879394 -0.07758434 19.85219506 -0.08126109 23.11572266 -0.08007812 C27.25312053 -0.079877 31.38981534 -0.10694793 35.52704811 -0.14162254 C38.73946086 -0.16413764 41.95171253 -0.16790794 45.16419601 -0.16685867 C46.68609366 -0.16918676 48.20799773 -0.17784848 49.72981644 -0.19352341 C68.5184373 -0.3686085 85.25390761 3.57763337 99.28662109 16.87646484 C111.44205692 30.0786781 113.29040256 46.5748601 112.68847656 63.6953125 C111.81452634 76.35211198 106.02184873 88.92636697 96.67724609 97.51708984 C84.32820032 107.61883179 68.13407033 111.50303855 52.38818359 111.38818359 C51.6434227 111.38676865 50.8986618 111.3853537 50.1313324 111.38389587 C47.77810461 111.37834723 45.42497584 111.36580467 43.07177734 111.35302734 C41.46565894 111.34800569 39.85953902 111.34344396 38.25341797 111.33935547 C34.33866691 111.32839469 30.42398885 111.31116618 26.50927734 111.29052734 C26.51593918 111.93532547 26.52260101 112.5801236 26.52946472 113.24446106 C26.59573533 119.94376651 26.64104352 126.64297916 26.67407227 133.3425293 C26.68917679 135.84419536 26.70966164 138.34583487 26.7355957 140.84741211 C26.7719051 144.43919419 26.78898709 148.03062676 26.80224609 151.62255859 C26.81772995 152.74451126 26.83321381 153.86646393 26.84916687 155.02241516 C26.84939346 156.06326767 26.84962006 157.10412018 26.84985352 158.17651367 C26.85651535 159.09362625 26.86317719 160.01073883 26.87004089 160.9556427 C26.50927734 163.29052734 26.50927734 163.29052734 25.17268372 165.08589172 C22.54826744 166.98648883 20.17209254 166.67980655 16.97802734 166.68896484 C15.69283203 166.69283203 14.40763672 166.69669922 13.08349609 166.70068359 C12.41495605 166.69439941 11.74641602 166.68811523 11.05761719 166.68164062 C9.01608404 166.66558089 6.97653027 166.68149406 4.93505859 166.70068359 C3.64986328 166.69681641 2.36466797 166.69294922 1.04052734 166.68896484 C-0.13960937 166.68558105 -1.31974609 166.68219727 -2.53564453 166.67871094 C-5.49072266 166.29052734 -5.49072266 166.29052734 -7.15202618 165.16998386 C-9.12685999 162.39742537 -8.8654244 160.21267355 -8.86494446 156.83103943 C-8.87090607 155.84313332 -8.87090607 155.84313332 -8.87698811 154.83526951 C-8.88662771 152.62409223 -8.87478366 150.41355211 -8.86303711 148.20239258 C-8.86546451 146.61900595 -8.86918334 145.03562085 -8.87409973 143.45223999 C-8.88351867 139.14862001 -8.87407535 134.84522706 -8.8607676 130.54162478 C-8.84946821 126.04354226 -8.85355939 121.54547117 -8.85551453 117.04737854 C-8.85639789 109.49403158 -8.8453075 101.94077431 -8.8269043 94.38745117 C-8.80572837 85.64586645 -8.80222816 76.90441306 -8.80846626 68.16280788 C-8.81415397 59.76344401 -8.80852176 51.36412654 -8.79729271 42.96476936 C-8.79263963 39.38544929 -8.79177592 35.80615753 -8.79387856 32.22683525 C-8.7957574 28.01533349 -8.78768888 23.80396609 -8.77181816 19.59249496 C-8.76756324 18.04367059 -8.76673283 16.4948326 -8.76950836 14.94600487 C-8.77271349 12.83819798 -8.76369123 10.73079677 -8.75141907 8.62303162 C-8.7493662 7.44150229 -8.74731333 6.25997297 -8.74519825 5.04263973 C-8.22382422 -0.59593611 -4.81275638 0.03035769 0 0 Z " fill="#F2E9D6" transform="translate(669.49072265625,658.70947265625)"/>
<path d="M0 0 C10.87406057 9.26227942 19.19545665 21.12112267 20.7109375 35.62109375 C20.91796875 38.40625 20.91796875 38.40625 20.8984375 40.55859375 C19.26451556 42.19251569 17.30551958 41.89856489 15.05078125 42.09375 C14.05240234 42.18076172 13.05402344 42.26777344 12.02539062 42.35742188 C10.44661133 42.48793945 10.44661133 42.48793945 8.8359375 42.62109375 C7.81048828 42.71197266 6.78503906 42.80285156 5.72851562 42.89648438 C2.78641349 43.146836 -0.15533941 43.36317573 -3.1015625 43.55859375 C-3.90625977 43.61837402 -4.71095703 43.6781543 -5.54003906 43.73974609 C-10.63717183 43.96847848 -10.63717183 43.96847848 -12.765625 42.08984375 C-13.08273437 41.41953125 -13.39984375 40.74921875 -13.7265625 40.05859375 C-14.11328125 39.32898438 -14.5 38.599375 -14.8984375 37.84765625 C-15.49398437 36.71457031 -15.49398437 36.71457031 -16.1015625 35.55859375 C-22.6256695 25.69912867 -29.83552807 19.8867431 -41.43359375 16.97265625 C-55.39683378 14.80559411 -67.86170978 17.14764673 -79.7890625 24.8125 C-90.30790073 32.7549336 -96.08132203 44.40617262 -98.6328125 57.1484375 C-100.97896383 74.21668845 -98.23913493 91.11667373 -88.16796875 105.27734375 C-81.6195591 113.25558963 -72.1590513 119.63970927 -61.80078125 121.34375 C-50.75549661 122.22289711 -40.18840662 122.84924238 -30.1015625 117.55859375 C-29.29203125 117.13449219 -28.4825 116.71039062 -27.6484375 116.2734375 C-20.10735583 111.7912383 -16.24888227 105.58255723 -13.1015625 97.55859375 C-8.42016996 97.53394087 -3.73881491 97.51575636 0.94262695 97.50366211 C2.53638364 97.49862218 4.13013569 97.49179025 5.72387695 97.4831543 C8.00994003 97.47107376 10.29594217 97.4653622 12.58203125 97.4609375 C13.29870468 97.45577621 14.01537811 97.45061493 14.75376892 97.44529724 C16.46907422 97.44510112 18.18425016 97.49667368 19.8984375 97.55859375 C20.2284375 97.88859375 20.5584375 98.21859375 20.8984375 98.55859375 C20.13128528 114.41307292 12.15464594 127.72266582 0.8984375 138.55859375 C-5.99094002 144.35715316 -13.76057674 148.26209938 -22.1015625 151.55859375 C-23.15085937 151.97496094 -24.20015625 152.39132812 -25.28125 152.8203125 C-42.13219065 158.36594539 -63.56641271 157.91507093 -80.1015625 151.55859375 C-81.14828125 151.18476562 -82.195 150.8109375 -83.2734375 150.42578125 C-103.84964001 142.53997775 -119.62282139 127.02164977 -128.7265625 107.12109375 C-138.25714326 82.81657065 -137.96264458 55.45002046 -128.4140625 31.24609375 C-119.16737705 11.17288715 -103.74743473 -2.61074603 -83.1953125 -10.56640625 C-56.46157794 -19.93699362 -22.83314256 -17.97319156 0 0 Z " fill="#F3E9D7" transform="translate(385.1015625,672.44140625)"/>
<path d="M0 0 C0.8559375 -0.01224609 1.711875 -0.02449219 2.59375 -0.03710938 C17.65907909 -0.07134876 30.33485997 5.80203747 41.25 16.1875 C43.78997057 19.05898304 46.05056474 22.05050387 48.25 25.1875 C49.3328125 26.610625 49.3328125 26.610625 50.4375 28.0625 C57.60780682 40.42509797 59.97067199 57.20541565 56.37890625 71.15625 C50.9688089 87.19142378 41.18042067 99.47952609 26.25 107.5 C24.93033141 108.09385086 23.59591658 108.65581158 22.25 109.1875 C21.51265625 109.48527344 20.7753125 109.78304687 20.015625 110.08984375 C5.3982795 115.01525365 -10.87361529 113.10880928 -24.66796875 106.8671875 C-40.49752973 98.87598844 -49.23557863 85.87087432 -55.0625 69.5 C-58.3645217 54.0376484 -54.86957654 38.25086529 -46.41015625 25.10546875 C-39.74813897 15.74911762 -32.14071845 9.08373248 -21.75 4.1875 C-21.06421875 3.85878906 -20.3784375 3.53007812 -19.671875 3.19140625 C-13.11413593 0.21191176 -7.08103423 0.00523745 0 0 Z " fill="#223540" transform="translate(510.75,232.8125)"/>
<path d="M0 0 C0.65830811 -0.00191345 1.31661621 -0.0038269 1.99487305 -0.00579834 C3.3868854 -0.0071595 4.77891047 -0.00346783 6.17089844 0.00488281 C8.30432589 0.015584 10.43691131 0.00498594 12.5703125 -0.0078125 C13.92187686 -0.00649089 15.2734407 -0.00392847 16.625 0 C18.47544922 0.00338379 18.47544922 0.00338379 20.36328125 0.00683594 C23.3125 0.265625 23.3125 0.265625 25.3125 2.265625 C25.56697559 5.01773739 25.56697559 5.01773739 25.57319641 8.59812927 C25.57893473 9.5836954 25.57893473 9.5836954 25.58478898 10.58917195 C25.59514583 12.80098335 25.59112185 15.01253645 25.5871582 17.22436523 C25.59150321 18.80598187 25.59668565 20.38759639 25.60264587 21.96920776 C25.61607008 26.27289612 25.61661075 30.57649684 25.61408257 34.88020205 C25.61301515 38.46884087 25.61789037 42.05746178 25.622688 45.64609677 C25.63379507 54.11018807 25.63421389 62.574235 25.62817383 71.03833008 C25.62213221 79.77933182 25.63444705 88.52017267 25.6557439 97.26114696 C25.67333903 104.75757325 25.67936456 112.25394822 25.67610615 119.7503944 C25.67428977 124.23131465 25.67696469 128.71212015 25.69082069 133.19302177 C25.70336051 137.40618511 25.70149166 141.61909702 25.68840981 145.83225632 C25.68603602 147.38066631 25.68880727 148.92909379 25.69703293 150.47748375 C25.70743506 152.58732998 25.69945367 154.69632229 25.6867218 156.80613708 C25.68688954 157.98804343 25.68705729 159.16994978 25.68723011 160.38767147 C25.3125 163.265625 25.3125 163.265625 23.97479534 165.14607334 C21.32142795 166.93310949 18.90153889 166.63683397 15.74609375 166.62890625 C13.8115332 166.62793945 13.8115332 166.62793945 11.83789062 166.62695312 C11.16733643 166.61865479 10.49678223 166.61035645 9.8059082 166.60180664 C7.75367112 166.57816729 5.70272967 166.58125352 3.65039062 166.58789062 C-6.42065282 166.53247218 -6.42065282 166.53247218 -8.6875 164.265625 C-8.93918228 161.49510193 -8.93918228 161.49510193 -8.94146729 157.88842773 C-8.94614726 156.89567793 -8.94614726 156.89567793 -8.95092177 155.88287258 C-8.95892862 153.65489861 -8.95256785 151.42719498 -8.94628906 149.19921875 C-8.94899774 147.60612833 -8.95255797 146.01303917 -8.95690918 144.41995239 C-8.96605016 140.08533297 -8.96248192 135.75080843 -8.95615101 131.41618729 C-8.95109983 126.88740018 -8.95577999 122.35862139 -8.95892334 117.82983398 C-8.96256557 110.22345516 -8.95775717 102.61711513 -8.94824219 95.01074219 C-8.93735714 86.20726761 -8.94088254 77.40388566 -8.951895 68.60041332 C-8.96096058 61.05220081 -8.96225673 53.50401625 -8.95701766 45.95580006 C-8.95389393 41.44308262 -8.95349961 36.93040876 -8.96009064 32.41769409 C-8.96585289 28.1758476 -8.96188787 23.93412094 -8.95030212 19.69228745 C-8.94764951 18.13217239 -8.94843082 16.57204731 -8.95282745 15.01193619 C-8.95826084 12.8887604 -8.95147614 10.76597304 -8.94146729 8.64282227 C-8.94071323 7.45261978 -8.93995918 6.2624173 -8.93918228 5.03614807 C-8.41820862 -0.69873936 -4.87502533 0.00891462 0 0 Z " fill="#F4EBD9" transform="translate(434.6875,658.734375)"/>
<path d="M0 0 C7.858125 -0.1546875 7.858125 -0.1546875 15.875 -0.3125 C17.50679199 -0.35802002 19.13858398 -0.40354004 20.81982422 -0.45043945 C29.90416833 -0.53670788 37.5587742 0.08035325 44.59692383 6.44384766 C49.55697726 11.97027397 51.5476202 17.54463662 51.4375 24.875 C51.42920166 25.58317871 51.42090332 26.29135742 51.41235352 27.02099609 C51.16492724 34.66567564 49.2397916 39.12420725 43.75 44.3125 C35.5731173 51.37619323 25.60777663 50.36027815 15.5 50.1875 C10.385 50.125625 5.27 50.06375 0 50 C0 33.5 0 17 0 0 Z " fill="#171C22" transform="translate(696,689)"/>
<path d="M0 0 C2.96985168 1.48492584 3.11908223 3.50333816 4.24658203 6.58959961 C4.68688751 7.78431381 5.12719299 8.97902802 5.58084106 10.20994568 C6.05674677 11.52398837 6.53239779 12.83812333 7.0078125 14.15234375 C7.49766422 15.491534 7.98805825 16.83052599 8.47897339 18.16932678 C9.50718975 20.97806751 10.53057468 23.78850494 11.55029297 26.6003418 C12.85913802 30.20902329 14.17707912 33.81429478 15.49829292 37.41846371 C16.51150815 40.1840853 17.52128436 42.95095174 18.52987289 45.71826363 C19.01477078 47.04823314 19.50041882 48.3779294 19.98682022 49.70734978 C20.66523713 51.56403704 21.33884137 53.4224807 22.01220703 55.28100586 C22.58939987 56.86866005 22.58939987 56.86866005 23.17825317 58.48838806 C24 61 24 61 24 63 C8.49 63 -7.02 63 -23 63 C-15.79458407 41.82490012 -7.90790495 20.92042433 0 0 Z " fill="#171C22" transform="translate(563,696)"/>
<path d="M0 0 C1.32 0.33 2.64 0.66 4 1 C3.01 1 2.02 1 1 1 C1 13.21 1 25.42 1 38 C4.3 38.33 7.6 38.66 11 39 C14.6015625 39.97265625 14.6015625 39.97265625 17.625 41.0625 C18.64851563 41.42472656 19.67203125 41.78695312 20.7265625 42.16015625 C21.47679687 42.43730469 22.22703125 42.71445312 23 43 C20 44 20 44 16 44 C15.8453125 45.8871875 15.8453125 45.8871875 15.6875 47.8125 C15.3611035 50.27135361 15.09847653 51.82493061 13.875 54 C10.95813337 55.5556622 8.23371783 55.18304063 5 55 C4.67 55.99 4.34 56.98 4 58 C4.66 58 5.32 58 6 58 C5.67 58.99 5.34 59.98 5 61 C4.01 61 3.02 61 2 61 C1.67 77.83 1.34 94.66 1 112 C0.67 112 0.34 112 0 112 C0 75.04 0 38.08 0 0 Z " fill="#5A7D59" transform="translate(323,304)"/>
<path d="M0 0 C0.66 0 1.32 0 2 0 C2 36.96 2 73.92 2 112 C1.67 112 1.34 112 1 112 C0.67 89.23 0.34 66.46 0 43 C-0.33 44.98 -0.66 46.96 -1 49 C-2.485 48.505 -2.485 48.505 -4 48 C-4.33 48.66 -4.66 49.32 -5 50 C-5.33 49.34 -5.66 48.68 -6 48 C-8.906521 49.3029232 -10.80835408 50.70873381 -13 53 C-13.99 53.495 -13.99 53.495 -15 54 C-16.13350534 56.01669827 -16.13350534 56.01669827 -17 58 C-17.99 57.01 -18.98 56.02 -20 55 C-19.67 54.236875 -19.34 53.47375 -19 52.6875 C-17.82563314 50.00930865 -17.82563314 50.00930865 -18 47 C-18.33 46.34 -18.66 45.68 -19 45 C-19.99 44.67 -20.98 44.34 -22 44 C-13.98792494 40.85239908 -7.70099317 39 1 39 C0.505 19.695 0.505 19.695 0 0 Z " fill="#597756" transform="translate(699,304)"/>
<path d="M0 0 C0.33 0 0.66 0 1 0 C1.023327 21.23528751 1.04097819 42.47057292 1.05181217 63.70587063 C1.05697555 73.56506719 1.06401905 83.4242558 1.07543945 93.28344727 C1.08538501 101.87347817 1.09185312 110.46350331 1.09408849 119.05353981 C1.09539582 123.60481195 1.09848305 128.15606764 1.10573006 132.70733452 C1.11248825 136.98604819 1.11461737 141.26473853 1.11310768 145.54345703 C1.1133841 147.11850677 1.11539041 148.69355723 1.11920547 150.26860237 C1.1241396 152.40964252 1.12299935 154.55059315 1.12025452 156.69163513 C1.12117631 157.89273139 1.1220981 159.09382765 1.12304783 160.33132076 C1 163 1 163 0 164 C-2.14558827 164.08775605 -4.29404421 164.10695219 -6.44140625 164.09765625 C-7.74658203 164.09443359 -9.05175781 164.09121094 -10.39648438 164.08789062 C-11.7851569 164.07953401 -13.17382877 164.07106905 -14.5625 164.0625 C-15.95507656 164.05748666 -17.34765481 164.05292347 -18.74023438 164.04882812 C-22.1601987 164.03699434 -25.58007844 164.0205088 -29 164 C-29 163.01 -29 162.02 -29 161 C-19.43 161 -9.86 161 0 161 C0 107.87 0 54.74 0 0 Z " fill="#EAE1CE" transform="translate(457,661)"/>
<path d="M0 0 C0.33 0 0.66 0 1 0 C1 2.97 1 5.94 1 9 C1.66 9.33 2.32 9.66 3 10 C2.34 10 1.68 10 1 10 C1 18.58 1 27.16 1 36 C1.66 36 2.32 36 3 36 C3 36.66 3 37.32 3 38 C4.98 37.505 4.98 37.505 7 37 C7 35.35 7 33.7 7 32 C7.66 32.33 8.32 32.66 9 33 C8.835 33.928125 8.67 34.85625 8.5 35.8125 C7.92251612 38.95621353 7.92251612 38.95621353 8 42 C8 42.99 8 43.98 8 45 C7.34 45.66 6.68 46.32 6 47 C6 46.34 6 45.68 6 45 C5.34 45 4.68 45 4 45 C3.67 46.32 3.34 47.64 3 49 C2.67 48.34 2.34 47.68 2 47 C2.33 46.34 2.66 45.68 3 45 C2.34 45 1.68 45 1 45 C1 51.93 1 58.86 1 66 C0.67 66 0.34 66 0 66 C0 44.22 0 22.44 0 0 Z " fill="#629566" transform="translate(324,356)"/>
<path d="M0 0 C-0.99 0.66 -1.98 1.32 -3 2 C-1.68 2.66 -0.36 3.32 1 4 C-5 7 -5 7 -11 10 C-11.66 9.01 -12.32 8.02 -13 7 C-13.84304688 7.51691406 -14.68609375 8.03382813 -15.5546875 8.56640625 C-16.65039062 9.22511719 -17.74609375 9.88382812 -18.875 10.5625 C-19.96554687 11.22378906 -21.05609375 11.88507813 -22.1796875 12.56640625 C-23.11039063 13.03949219 -24.04109375 13.51257813 -25 14 C-25.66 13.67 -26.32 13.34 -27 13 C-21.5910492 9.13018154 -15.95603761 5.74779838 -10.125 2.5625 C-9.47072021 2.19640625 -8.81644043 1.8303125 -8.14233398 1.453125 C-3.35345543 -1.11781848 -3.35345543 -1.11781848 0 0 Z " fill="#478365" transform="translate(658,357)"/>
<path d="M0 0 C1 3 1 3 -0.37109375 6.15234375 C-1.04757795 7.42070949 -1.73725561 8.68209556 -2.4375 9.9375 C-2.79859863 10.59830566 -3.15969727 11.25911133 -3.53173828 11.93994141 C-13.00313279 29.0015664 -13.00313279 29.0015664 -17 31 C-15.125 26.25 -15.125 26.25 -14 24 C-14.66 24 -15.32 24 -16 24 C-15.42655063 21.13275314 -15.1385485 20.1385485 -13 18 C-10.875 17.375 -10.875 17.375 -9 17 C-8.71125 15.88625 -8.4225 14.7725 -8.125 13.625 C-7 10 -7 10 -5 8 C-2.9628037 5.45350462 -1.3733484 2.95798118 0 0 Z " fill="#619265" transform="translate(683,479)"/>
<path d="M0 0 C4.62166711 4.13605716 7.4684591 8.74639155 10.5 14.125 C10.98049805 14.96869141 11.46099609 15.81238281 11.95605469 16.68164062 C19.54140784 30.13802614 19.54140784 30.13802614 21 35 C20.67 35.99 20.34 36.98 20 38 C19.608125 37.401875 19.21625 36.80375 18.8125 36.1875 C16.78862122 33.74488768 14.77291294 32.49887186 12 31 C12.99 30.34 13.98 29.68 15 29 C13.41343751 22.96307983 10.18936167 18.06492219 6.9375 12.8125 C5.83983298 11.02895045 4.74466434 9.24386018 3.65234375 7.45703125 C3.16757568 6.67303955 2.68280762 5.88904785 2.18334961 5.08129883 C1 3 1 3 0 0 Z " fill="#3E8269" transform="translate(436,412)"/>
<path d="M0 0 C0.66 0.33 1.32 0.66 2 1 C1.67 1.66 1.34 2.32 1 3 C1.89163577 5.11683841 1.89163577 5.11683841 3 7 C2.01 7 1.02 7 0 7 C0.33 8.32 0.66 9.64 1 11 C0.01 11.33 -0.98 11.66 -2 12 C-2 13.65 -2 15.3 -2 17 C-4.48982535 14.72254211 -6.10368997 12.37664762 -7.75 9.4375 C-8.19859375 8.65246094 -8.6471875 7.86742187 -9.109375 7.05859375 C-9.40328125 6.37925781 -9.6971875 5.69992187 -10 5 C-9.67 4.34 -9.34 3.68 -9 3 C-8.34 4.65 -7.68 6.3 -7 8 C-6.34 8 -5.68 8 -5 8 C-5 7.01 -5 6.02 -5 5 C-4.34 5 -3.68 5 -3 5 C-1.3553326 2.53673288 -1.3553326 2.53673288 0 0 Z " fill="#5F8E64" transform="translate(354,484)"/>
<path d="M0 0 C2.54106009 2.20961747 3.30621489 3.73988358 4 7 C-4.34226001 9.38994476 -12.33459773 10.5946828 -21 11 C-20.01 10.67 -19.02 10.34 -18 10 C-17.67 9.01 -17.34 8.02 -17 7 C-17 7.66 -17 8.32 -17 9 C-13.04 8.34 -9.08 7.68 -5 7 C-5 6.01 -5 5.02 -5 4 C-4.34 4 -3.68 4 -3 4 C-3 3.34 -3 2.68 -3 2 C-2.01 1.34 -1.02 0.68 0 0 Z " fill="#F0A226" transform="translate(561,574)"/>
<path d="M0 0 C3.43334724 6.86669449 3.39100768 12.84227939 3.625 20.5 C3.64779022 21.19997101 3.67058044 21.89994202 3.69406128 22.62112427 C4.03825455 33.46188797 3.96387098 44.18981625 3 55 C2.34 54.67 1.68 54.34 1 54 C1.00523682 52.89712646 1.01047363 51.79425293 1.01586914 50.65795898 C1.03422676 46.49244018 1.04554216 42.32692481 1.05493164 38.16137695 C1.05990261 36.3723083 1.06668173 34.58324358 1.07543945 32.79418945 C1.1277786 21.81220467 0.92505752 10.94738305 0 0 Z " fill="#F79C1F" transform="translate(469,488)"/>
<path d="M0 0 C0.33 0 0.66 0 1 0 C1 4.29 1 8.58 1 13 C1.66 13 2.32 13 3 13 C3 13.99 3 14.98 3 16 C2.01 16 1.02 16 0 16 C-0.33 25.9 -0.66 35.8 -1 46 C-1.33 46 -1.66 46 -2 46 C-2.02491316 41.18026089 -2.04295998 36.36056015 -2.05493164 31.54077148 C-2.05992803 29.90469712 -2.06672739 28.26862715 -2.07543945 26.63256836 C-2.19086945 4.3817389 -2.19086945 4.3817389 0 0 Z " fill="#3C826B" transform="translate(555,487)"/>
<path d="M0 0 C0.99 0.33 1.98 0.66 3 1 C3.77528479 4.42573937 4.11918778 7.57239245 4.09765625 11.08203125 C4.09282227 12.47905273 4.09282227 12.47905273 4.08789062 13.90429688 C4.07951172 14.86400391 4.07113281 15.82371094 4.0625 16.8125 C4.05798828 17.79154297 4.05347656 18.77058594 4.04882812 19.77929688 C4.03708684 22.18626111 4.02066419 24.59309857 4 27 C3.01 26.67 2.02 26.34 1 26 C1 19.07 1 12.14 1 5 C0.67 5 0.34 5 0 5 C0 3.35 0 1.7 0 0 Z " fill="#E2DCD0" transform="translate(778,698)"/>
<path d="M0 0 C2.64 0.66 5.28 1.32 8 2 C8 2.66 8 3.32 8 4 C6.35 4.66 4.7 5.32 3 6 C5.16264012 9.98381075 7.71211176 12.88983545 11 16 C7.5881759 14.46428335 4.85527045 12.45745601 1.9375 10.125 C1.08027344 9.44695313 0.22304688 8.76890625 -0.66015625 8.0703125 C-2.79935403 6.17753316 -4.3937074 4.34887376 -6 2 C-5.21625 2.350625 -4.4325 2.70125 -3.625 3.0625 C-2.75875 3.371875 -1.8925 3.68125 -1 4 C-0.34 3.67 0.32 3.34 1 3 C0.67 2.01 0.34 1.02 0 0 Z " fill="#609065" transform="translate(389,536)"/>
<path d="M0 0 C0 3 0 3 -1 6 C-1.763125 6.45375 -2.52625 6.9075 -3.3125 7.375 C-7.49908648 9.90642438 -10.13709598 13.49798195 -12 18 C-12 18.66 -12 19.32 -12 20 C-12 20.99 -12 21.98 -12 23 C-12.61875 22.67 -13.2375 22.34 -13.875 22 C-15.91018344 20.85806765 -15.91018344 20.85806765 -18 21 C-14.41995507 12.76021406 -6.36575877 6.18154067 0 0 Z " fill="#4E8563" transform="translate(608,388)"/>
<path d="M0 0 C0 3.10551666 -0.5393715 4.35261084 -2 7 C-2.66 7 -3.32 7 -4 7 C-4.6814823 8.89179203 -4.6814823 8.89179203 -5 11 C-4.34 11.66 -3.68 12.32 -3 13 C-3.99 13.495 -3.99 13.495 -5 14 C-6.32 13.01 -7.64 12.02 -9 11 C-9.763125 11.66 -10.52625 12.32 -11.3125 13 C-14 15 -14 15 -17 15 C-11.75226411 9.43948515 -6.03948712 4.67847594 0 0 Z M-3 11 C-1 12 -1 12 -1 12 Z M-8 14 C-5 15 -5 15 -5 15 Z " fill="#F0A92D" transform="translate(564,362)"/>
<path d="M0 0 C0 3 0 3 -1.53125 4.82421875 C-2.50578125 5.74654297 -2.50578125 5.74654297 -3.5 6.6875 C-4.1496875 7.31011719 -4.799375 7.93273437 -5.46875 8.57421875 C-5.9740625 9.04472656 -6.479375 9.51523437 -7 10 C-6.01 10.66 -5.02 11.32 -4 12 C-4.33 13.32 -4.66 14.64 -5 16 C-6.98 15.34 -8.96 14.68 -11 14 C-12.32 15.32 -13.64 16.64 -15 18 C-15.66 17.67 -16.32 17.34 -17 17 C-11.39 11.39 -5.78 5.78 0 0 Z " fill="#192639" transform="translate(654,526)"/>
<path d="M0 0 C5.25558827 1.42086565 8.99708172 3.82356173 13.3125 7 C13.94478516 7.45117188 14.57707031 7.90234375 15.22851562 8.3671875 C19.86227679 11.72455357 19.86227679 11.72455357 21 14 C18.525 13.505 18.525 13.505 16 13 C15.67 13.66 15.34 14.32 15 15 C14.01 14.67 13.02 14.34 12 14 C12.33 13.34 12.66 12.68 13 12 C12.01 11.67 11.02 11.34 10 11 C10.33 10.01 10.66 9.02 11 8 C10.2059375 7.50628906 9.411875 7.01257813 8.59375 6.50390625 C7.5728125 5.86324219 6.551875 5.22257812 5.5 4.5625 C4.4790625 3.92441406 3.458125 3.28632813 2.40625 2.62890625 C1.6121875 2.09136719 0.818125 1.55382812 0 1 C0 0.67 0 0.34 0 0 Z " fill="#ECA72C" transform="translate(429,341)"/>
<path d="M0 0 C2 2 2 2 2.22705078 3.87939453 C2.21657715 4.62302246 2.20610352 5.36665039 2.1953125 6.1328125 C2.18886719 6.93847656 2.18242187 7.74414062 2.17578125 8.57421875 C2.15902344 9.41597656 2.14226562 10.25773438 2.125 11.125 C2.11597656 11.97449219 2.10695313 12.82398438 2.09765625 13.69921875 C2.07405647 15.79959884 2.03818483 17.89983444 2 20 C1.34 20.33 0.68 20.66 0 21 C-1.23697002 17.17128327 -1.14786169 13.35293434 -1.125 9.375 C-1.12886719 8.694375 -1.13273437 8.01375 -1.13671875 7.3125 C-1.12672061 2.25344122 -1.12672061 2.25344122 0 0 Z " fill="#2A2B2B" transform="translate(286,731)"/>
<path d="M0 0 C3.3125 -0.1875 3.3125 -0.1875 7 0 C7.62261719 0.63615234 7.62261719 0.63615234 8.2578125 1.28515625 C10.90417757 3.88998644 14.21480155 5.13009587 17.5625 6.625 C18.91797707 7.24216924 20.27344617 7.85935595 21.62890625 8.4765625 C22.74136719 8.97929687 23.85382813 9.48203125 25 10 C27.50357192 11.25178596 29.06433379 12.99981158 31 15 C27.75403112 15 26.65764974 14.47180313 23.8671875 12.953125 C22.65675781 12.3034375 22.65675781 12.3034375 21.421875 11.640625 C20.16117187 10.95226562 20.16117187 10.95226562 18.875 10.25 C12.6843942 6.89105931 6.48272081 3.76018285 0 1 C0 0.67 0 0.34 0 0 Z " fill="#F09B22" transform="translate(357,350)"/>
<path d="M0 0 C2.31 0.33 4.62 0.66 7 1 C7 7.6 7 14.2 7 21 C6.67 21 6.34 21 6 21 C6 16.38 6 11.76 6 7 C3.69 7.33 1.38 7.66 -1 8 C-1 6.68 -1 5.36 -1 4 C0.65 3.34 2.3 2.68 4 2 C2.68 1.34 1.36 0.68 0 0 Z " fill="#DF912B" transform="translate(692,305)"/>
<path d="M0 0 C3.62484999 -0.08681476 7.24943443 -0.14032721 10.875 -0.1875 C12.42380859 -0.22520508 12.42380859 -0.22520508 14.00390625 -0.26367188 C14.99003906 -0.27333984 15.97617187 -0.28300781 16.9921875 -0.29296875 C17.90339355 -0.3086792 18.81459961 -0.32438965 19.75341797 -0.34057617 C20.49479004 -0.22818604 21.23616211 -0.1157959 22 0 C22.66 0.99 23.32 1.98 24 3 C16.08 3 8.16 3 0 3 C0 2.01 0 1.02 0 0 Z " fill="#E4DED1" transform="translate(322,657)"/>
<path d="M0 0 C0 0.66 0 1.32 0 2 C-2.31 2 -4.62 2 -7 2 C-7 2.99 -7 3.98 -7 5 C-10 7 -10 7 -13 8 C-13.66 7.01 -14.32 6.02 -15 5 C-15.99 4.67 -16.98 4.34 -18 4 C-16.75108386 3.51801537 -15.50081192 3.03954323 -14.25 2.5625 C-13.55390625 2.29566406 -12.8578125 2.02882813 -12.140625 1.75390625 C-7.95180322 0.27864602 -4.46051146 -0.10137526 0 0 Z " fill="#4F8463" transform="translate(695,344)"/>
<path d="M0 0 C12.01825946 -0.20760909 23.99917584 0.42172115 36 1 C36 1.33 36 1.66 36 2 C25.605 2.495 25.605 2.495 15 3 C14.67 3.66 14.34 4.32 14 5 C12.35 5 10.7 5 9 5 C8.67 4.01 8.34 3.02 8 2 C5.36 1.67 2.72 1.34 0 1 C0 0.67 0 0.34 0 0 Z " fill="#091C43" transform="translate(488,587)"/>
<path d="M0 0 C-3.465 1.485 -3.465 1.485 -7 3 C-6.7215625 3.928125 -6.7215625 3.928125 -6.4375 4.875 C-6 7 -6 7 -7 9 C-7.66 8.67 -8.32 8.34 -9 8 C-9 7.34 -9 6.68 -9 6 C-10.32 6.33 -11.64 6.66 -13 7 C-13 6.34 -13 5.68 -13 5 C-14.65 5.33 -16.3 5.66 -18 6 C-15.14160085 3.69740069 -12.39581962 2.13731655 -9 0.75 C-8.154375 0.39421875 -7.30875 0.0384375 -6.4375 -0.328125 C-3.81117065 -1.05204912 -2.52787043 -0.9128421 0 0 Z " fill="#468266" transform="translate(676,350)"/>
<path d="M0 0 C2.48046875 1.11328125 2.48046875 1.11328125 5 3 C5.48828125 5.91796875 5.48828125 5.91796875 5.3125 9.1875 C5.26738281 10.27417969 5.22226562 11.36085938 5.17578125 12.48046875 C5.11777344 13.31191406 5.05976563 14.14335937 5 15 C4.67 15 4.34 15 4 15 C4 12.69 4 10.38 4 8 C3.01 8.99 2.02 9.98 1 11 C1 10.01 1 9.02 1 8 C0.34 7.67 -0.32 7.34 -1 7 C-0.67 4.69 -0.34 2.38 0 0 Z " fill="#4E8363" transform="translate(465,497)"/>
<path d="M0 0 C0.33 0.66 0.66 1.32 1 2 C-0.44338488 5.38744388 -2.10203883 8.64134989 -3.75 11.93359375 C-5.37347758 14.96447552 -5.37347758 14.96447552 -4 18 C-4.99 18 -5.98 18 -7 18 C-7.66 19.32 -8.32 20.64 -9 22 C-7.72858953 13.66519805 -4.17249281 7.21818942 0 0 Z M-4 14 C-3.01 14.495 -3.01 14.495 -2 15 C-2.33 15.66 -2.66 16.32 -3 17 C-3.33 16.01 -3.66 15.02 -4 14 Z " fill="#418369" transform="translate(573,434)"/>
<path d="M0 0 C0.33 0 0.66 0 1 0 C1.33 5.28 1.66 10.56 2 16 C2.33 16 2.66 16 3 16 C3.33 18.97 3.66 21.94 4 25 C3.01 25 2.02 25 1 25 C-0.00005304 21.99984088 -0.11575585 20.02576244 -0.09765625 16.89453125 C-0.09443359 15.91162109 -0.09121094 14.92871094 -0.08789062 13.91601562 C-0.07951172 12.89185547 -0.07113281 11.86769531 -0.0625 10.8125 C-0.05798828 9.77673828 -0.05347656 8.74097656 -0.04882812 7.67382812 C-0.0370401 5.11582734 -0.02058515 2.55794267 0 0 Z " fill="#E8E0D1" transform="translate(283,732)"/>
<path d="M0 0 C0.66 0.33 1.32 0.66 2 1 C1.67 1.66 1.34 2.32 1 3 C3.89234315 3.82638376 5.88742431 4 9 4 C5.80028719 6.45311315 2.59587156 8.20206422 -1 10 C-1.33 7.69 -1.66 5.38 -2 3 C-1.34 3 -0.68 3 0 3 C0 2.01 0 1.02 0 0 Z " fill="#56825D" transform="translate(601,556)"/>
<path d="M0 0 C0 0.99 0 1.98 0 3 C2.77260299 4.93798263 2.77260299 4.93798263 5 6 C4.01 7.32 3.02 8.64 2 10 C0.68 9.34 -0.64 8.68 -2 8 C-2.99 8.99 -3.98 9.98 -5 11 C-5.66 10.67 -6.32 10.34 -7 10 C-3.535 5.05 -3.535 5.05 0 0 Z " fill="#4A8364" transform="translate(586,413)"/>
<path d="M0 0 C6.41991126 0.57065878 12.01589463 2.67344909 18 5 C14.28125 6.1171875 14.28125 6.1171875 11.75 5.0625 C11.1725 4.711875 10.595 4.36125 10 4 C9.67 4.66 9.34 5.32 9 6 C7.68 5.34 6.36 4.68 5 4 C5 3.34 5 2.68 5 2 C3.35 1.67 1.7 1.34 0 1 C0 0.67 0 0.34 0 0 Z " fill="#EFAB2C" transform="translate(368,314)"/>
<path d="M0 0 C7.03051093 3.19426332 12.3156261 8.99814594 17 15 C13.81293058 13.56438314 11.37830895 11.79733671 8.75 9.5 C7.69039063 8.58734375 7.69039063 8.58734375 6.609375 7.65625 C5 6 5 6 5 4 C3.68 4 2.36 4 1 4 C0.67 2.68 0.34 1.36 0 0 Z " fill="#3E8167" transform="translate(404,379)"/>
<path d="M0 0 C0.33 0.99 0.66 1.98 1 3 C1.99 3 2.98 3 4 3 C5.41687119 7.25061356 4.19320039 9.71851625 3 14 C-0.26566506 9.10150241 -0.09311493 5.68001091 0 0 Z " fill="#629265" transform="translate(326,432)"/>
<path d="M0 0 C4.48993869 0.58652352 8.22543184 1.7643538 12.375 3.5625 C13.43460937 4.01753906 14.49421875 4.47257812 15.5859375 4.94140625 C16.38257813 5.29074219 17.17921875 5.64007813 18 6 C18 6.99 18 7.98 18 9 C17.46632813 8.7215625 16.93265625 8.443125 16.3828125 8.15625 C12.56829498 6.30527101 8.61361968 4.79617024 4.6796875 3.21875 C2 2 2 2 0 0 Z " fill="#418167" transform="translate(347,348)"/>
<path d="M0 0 C0.66 0.66 1.32 1.32 2 2 C1.34 2 0.68 2 0 2 C0 1.34 0 0.68 0 0 Z M-3 2 C-1.68 2.33 -0.36 2.66 1 3 C1.33 3.66 1.66 4.32 2 5 C1.01 5.495 1.01 5.495 0 6 C-0.68729254 8.11846285 -0.68729254 8.11846285 -1.125 10.5625 C-1.29257812 11.38878906 -1.46015625 12.21507812 -1.6328125 13.06640625 C-1.75398437 13.70449219 -1.87515625 14.34257812 -2 15 C-2.33 15 -2.66 15 -3 15 C-3 10.71 -3 6.42 -3 2 Z " fill="#1A273A" transform="translate(703,414)"/>
<path d="M0 0 C3.37462715 0.54723683 5.08235 1.0549 8 3 C8.6875 5.125 8.6875 5.125 9 7 C6.00667261 6.0022242 5.05233685 5.2477975 3 3 C3 3.99 3 4.98 3 6 C1.68 5.67 0.36 5.34 -1 5 C-0.67 3.35 -0.34 1.7 0 0 Z " fill="#EEA22C" transform="translate(407,329)"/>
<path d="M0 0 C0.66 0.33 1.32 0.66 2 1 C1.71125 1.845625 1.4225 2.69125 1.125 3.5625 C-0.00772704 7.02361041 -1.01824316 10.49372557 -2 14 C-2.66 14 -3.32 14 -4 14 C-3.46148032 8.72250715 -2.22656164 4.74354436 0 0 Z " fill="#F2EFE5" transform="translate(494,790)"/>
<path d="M0 0 C0 3 0 3 -1 6 C-2.64556566 7.03435556 -4.3170608 8.02763513 -6 9 C-8.05680792 10.60778647 -10.0201325 12.29639308 -12 14 C-10.41332422 10.09714233 -7.86649519 7.66479018 -4.875 4.75 C-3.96492187 3.85796875 -3.05484375 2.9659375 -2.1171875 2.046875 C-1.41851563 1.37140625 -0.71984375 0.6959375 0 0 Z " fill="#38806B" transform="translate(608,388)"/>
<path d="M0 0 C4.43458973 1.3937282 6.87378374 3.60582235 10 7 C6.37 6.34 2.74 5.68 -1 5 C-0.67 3.35 -0.34 1.7 0 0 Z " fill="#478266" transform="translate(389,368)"/>
<path d="M0 0 C6.93 0 13.86 0 21 0 C21 0.33 21 0.66 21 1 C18.25048307 1.22212255 15.50134388 1.42815588 12.75 1.625 C11.97269531 1.68945312 11.19539062 1.75390625 10.39453125 1.8203125 C9.64042969 1.871875 8.88632812 1.9234375 8.109375 1.9765625 C7.07248535 2.05511475 7.07248535 2.05511475 6.01464844 2.13525391 C4 2 4 2 0 0 Z M2 2 C2.66 2 3.32 2 4 2 C4 2.99 4 3.98 4 5 C3.01 4.67 2.02 4.34 1 4 C1.33 3.34 1.66 2.68 2 2 Z " fill="#1E2E38" transform="translate(550,181)"/>
<path d="M0 0 C2.0625 1.75 2.0625 1.75 4 4 C3.6875 5.8125 3.6875 5.8125 3 8 C3.27313343 10.34114367 3.59802999 12.67750658 4 15 C3.34 14.67 2.68 14.34 2 14 C0.52819204 9.17574056 -0.25376143 5.07522852 0 0 Z " fill="#F6F3EC" transform="translate(252,759)"/>
<path d="M0 0 C2.26185454 2.26185454 3.03921617 3.96983561 4 7 C3.67 7.99 3.34 8.98 3 10 C2.4121875 9.1028125 2.4121875 9.1028125 1.8125 8.1875 C-0.21137878 5.74488768 -2.22708706 4.49887186 -5 3 C-4.360625 2.690625 -3.72125 2.38125 -3.0625 2.0625 C-1.06389179 1.1654837 -1.06389179 1.1654837 0 0 Z " fill="#498465" transform="translate(453,440)"/>
<path d="M0 0 C3.63 0 7.26 0 11 0 C11 0.33 11 0.66 11 1 C9.35 1 7.7 1 6 1 C6 1.66 6 2.32 6 3 C6.99 3.33 7.98 3.66 9 4 C8.01 4.495 8.01 4.495 7 5 C6.01 4.67 5.02 4.34 4 4 C4 3.34 4 2.68 4 2 C2.35 2 0.7 2 -1 2 C-0.67 1.34 -0.34 0.68 0 0 Z " fill="#12233F" transform="translate(526,587)"/>
<path d="M0 0 C3.96 0.33 7.92 0.66 12 1 C8.55549263 3.29633824 6.06187717 3.54016485 2 4 C2.66 3.67 3.32 3.34 4 3 C4 2.34 4 1.68 4 1 C2.68 0.67 1.36 0.34 0 0 Z " fill="#112442" transform="translate(475,585)"/>
<path d="M0 0 C4.82675589 2.41337795 7.69984002 5.86062408 11 10 C10.01 10.33 9.02 10.66 8 11 C7.4121875 9.88625 7.4121875 9.88625 6.8125 8.75 C4.87107496 5.80438959 2.7545886 4.15900188 0 2 C0 1.34 0 0.68 0 0 Z " fill="#F3B12C" transform="translate(469,370)"/>
<path d="M0 0 C0.99 0.33 1.98 0.66 3 1 C3 3.97 3 6.94 3 10 C2.01 9.34 1.02 8.68 0 8 C-0.40843923 5.28796348 -0.13336867 2.7562858 0 0 Z " fill="#E6E0D1" transform="translate(250,746)"/>
<path d="M0 0 C2 1 2 1 3.1875 3.8125 C3.96421451 6.85961076 4.10096399 8.13749363 3 11 C1.66666667 8.33333333 0.33333333 5.66666667 -1 3 C-0.67 2.01 -0.34 1.02 0 0 Z " fill="#0D0F0F" transform="translate(563,696)"/>
<path d="M0 0 C-2.35953094 2.35953094 -3.77895617 2.49141413 -7 3 C-7 2.34 -7 1.68 -7 1 C-7.66 0.67 -8.32 0.34 -9 0 C-5.67465243 -1.10844919 -3.37817425 -0.84454356 0 0 Z " fill="#222426" transform="translate(750,767)"/>
<path d="M0 0 C4.12751449 0.60698743 7.3321148 2.03810791 11 4 C8 5 8 5 5.95703125 4.22265625 C5.24933594 3.83980469 4.54164063 3.45695313 3.8125 3.0625 C3.09707031 2.68222656 2.38164062 2.30195312 1.64453125 1.91015625 C1.10183594 1.60980469 0.55914062 1.30945313 0 1 C0 0.67 0 0.34 0 0 Z " fill="#619365" transform="translate(427,568)"/>
</svg>
